<!-- Save as "logo.svg" -->
<svg xmlns="http://www.w3.org/2000/svg" width="40" height="40" viewBox="0 0 40 40" aria-hidden="true" role="img">
  <defs>
    <!-- amber gradient -->
    <linearGradient id="g" x1="0" y1="0" x2="1" y2="1">
      <stop offset="0" stop-color="#b45309"/>  <!-- amber-700 -->
      <stop offset="1" stop-color="#7c2d12"/>  <!-- amber-900 -->
    </linearGradient>

    <!-- soft shadow -->
    <filter id="shadow" x="-50%" y="-50%" width="200%" height="200%">
      <feDropShadow dx="0" dy="2" stdDeviation="3" flood-color="#000" flood-opacity="0.18"/>
    </filter>
  </defs>

  <!-- circle with gradient and shadow -->
  <g filter="url(#shadow)">
    <circle cx="20" cy="20" r="18" fill="url(#g)"/>
  </g>

  <!-- centered icon: original 20x20 path translated by (10,10) to sit in center of 40x40 -->
  <g transform="translate(10 10)" fill="#FFFBEB" fill-rule="evenodd" clip-rule="evenodd">
    <path d="M10 18a8 8 0 100-16 8 8 0 000 16zm1-11a1 1 0 10-2 0v3.586L7.707 9.293a1 1 0 00-1.414 1.414l3 3a1 1 0 001.414 0l3-3a1 1 0 00-1.414-1.414L11 10.586V7z"/>
  </g>
</svg>
